<svg width="769" height="770" viewBox="0 0 769 770" fill="none" xmlns="http://www.w3.org/2000/svg">
<path d="M327.55 529.75L534.35 322.95L523.325 311.925L570.2 265.05L502.05 196.9L455.175 243.775L444.15 232.75L435.625 241.275C406.025 182.525 411.55 110.825 464.55 20.2751C207 -83.1249 -70.825 230.55 18.3 476.5C101.775 427.975 187.85 407.275 252.1 424.825L237.375 439.55L248.4 450.575L0.775024 698.2V769.15H66.125L316.55 518.725L327.575 529.75H327.55ZM748.45 304.175C656.625 357.9 584.325 363.025 525.2 332.1L343.25 514.05C362.125 578.55 341.45 665.75 292.225 750.425C538.175 839.525 851.85 561.725 748.45 304.175Z" fill="#2A292A"/>
</svg>
